<svg id="team" version="1.1" xmlns="http://www.w3.org/2000/svg" xmlns:xlink="http://www.w3.org/1999/xlink" x="0px" y="0px" viewBox="0 0 143 64" enable-background="new 0 0 143 64" xml:space="preserve" data-v-098dde30="" data-v-1e009ed9=""><g id="logo2" clip-path="url(#clip0_1026_674)" data-v-098dde30=""><mask id="mask0_1026_674" maskUnits="userSpaceOnUse" x="0" y="0" width="143" height="64" style="mask-type: alpha;" data-v-098dde30=""><path id="vector" fill-rule="evenodd" clip-rule="evenodd" d="M19.5909 27.254C19.8769 27.7286 20.263 28.0738 20.7492 28.2751C21.2211 28.4764 21.7359 28.5052 22.2936 28.3326C22.8227 28.16 23.2517 27.7717 23.5377 27.1677L26.0116 21.5875H38.1523L40.5976 27.1102C40.9122 27.7286 41.2983 28.1313 41.8417 28.3039C42.3708 28.4764 42.8856 28.4764 43.3575 28.2751C43.8294 28.0738 44.2298 27.743 44.5158 27.254C44.8018 26.7794 44.8304 26.2329 44.573 25.6144L34.0339 1.81218C33.8051 1.28005 33.5334 0.848585 33.1616 0.589708C32.7898 0.330832 32.4323 0.187012 32.0605 0.187012C31.6887 0.187012 31.3312 0.330832 30.988 0.589708C30.6448 0.848585 30.3731 1.2369 30.1443 1.78342L19.5051 25.5713C19.2906 26.2329 19.3049 26.7938 19.5909 27.254ZM27.7848 17.5893L32.0891 7.91016L36.3648 17.5893H27.7848ZM1.85877 27.9299C2.31637 28.2751 2.78827 28.4333 3.28877 28.4333C3.78927 28.4333 4.30407 28.2607 4.71877 27.9299C5.14777 27.5847 5.39087 27.0814 5.39087 26.4054V18.6104H8.62267C10.3673 18.6104 11.9403 18.409 13.2988 18.0207C14.6573 17.618 15.8013 17.0283 16.7594 16.2661C17.6889 15.5038 18.4182 14.5403 18.9044 13.4041C19.3763 12.2679 19.6337 10.9735 19.6337 9.4634C19.6337 8.12587 19.4049 6.97531 18.9616 5.92542C18.504 4.87553 17.8319 3.99823 16.931 3.26475C16.0301 2.53126 14.9004 1.95598 13.5276 1.56767C12.1834 1.16497 10.5818 0.963623 8.75137 0.963623H3.28877C2.73107 0.963623 2.21627 1.16497 1.80157 1.55329C1.37257 1.95598 1.18667 2.43059 1.18667 2.96272V26.4054C1.17237 27.0814 1.40117 27.5847 1.85877 27.9299ZM8.75137 4.99059C10.1528 4.99059 11.3111 5.10564 12.1548 5.36452C13.0271 5.59463 13.6992 5.92542 14.1854 6.32812C14.6573 6.75958 15.0005 7.20542 15.1435 7.73755C15.3151 8.26969 15.4009 8.84497 15.4009 9.4634C15.4009 10.2832 15.2865 11.0167 15.0863 11.6495C14.8861 12.2679 14.5286 12.8144 13.9852 13.2603C13.4847 13.6917 12.7697 14.0225 11.8974 14.2526C11.0251 14.4827 9.92397 14.5978 8.63697 14.5978H5.40517V4.99059H8.75137ZM56.485 28.1311H51.2655C50.7078 28.1311 50.2073 27.9298 49.7926 27.5702C49.3779 27.1819 49.1777 26.6929 49.1777 26.1608V3.04891C49.1777 2.51677 49.3636 2.04216 49.7926 1.63947C50.2073 1.25115 50.7221 1.0498 51.2798 1.0498H63.2775C64.0068 1.0498 64.5359 1.23677 64.8791 1.66823C65.208 2.08531 65.3796 2.54553 65.3796 3.04891C65.3796 3.55228 65.2223 3.99812 64.8791 4.42958C64.5216 4.84666 64.0068 5.04801 63.2775 5.04801H53.3962V11.3329H56.6566C58.1009 11.3329 59.4451 11.4768 60.7464 11.7644C62.0334 12.052 63.1631 12.5123 64.1212 13.1307C65.065 13.7491 65.8658 14.5689 66.4235 15.6188C66.9812 16.6687 67.2672 17.9487 67.2672 19.5019C67.2672 20.7388 67.0527 21.9325 66.6237 22.9824C66.1947 24.0323 65.5512 24.9671 64.6789 25.7293C63.8352 26.4916 62.7055 27.0813 61.3327 27.5127C59.9456 27.9298 58.344 28.1311 56.485 28.1311ZM59.7311 15.6476C58.8874 15.475 57.8721 15.3887 56.6566 15.3887H53.3962V24.061H56.4993C57.8721 24.061 59.0018 23.946 59.8455 23.6871C60.6892 23.4282 61.3327 23.1262 61.7903 22.6947C62.2765 22.3064 62.5768 21.8174 62.7484 21.2565C62.92 20.6956 63.0058 20.0916 63.0058 19.4732C63.0058 18.7972 62.8914 18.1932 62.6912 17.6898C62.491 17.172 62.1478 16.755 61.6759 16.4098C61.2183 16.079 60.5462 15.8201 59.7311 15.6476ZM74.7889 24.4207C75.9758 25.672 77.4058 26.6643 79.0646 27.369C80.752 28.1025 82.6396 28.4477 84.7274 28.4477C86.8438 28.4477 88.7314 28.0738 90.3902 27.369C92.049 26.6356 93.4933 25.672 94.6659 24.4207C95.8528 23.1695 96.7537 21.7025 97.3686 20.0054C97.9835 18.3084 98.3267 16.4675 98.3267 14.5403C98.3267 12.6131 98.0121 10.8009 97.3686 9.10387C96.7537 7.40679 95.8242 5.92544 94.6659 4.68859C93.479 3.43735 92.0776 2.44499 90.3902 1.74027C88.7314 1.00679 86.8152 0.661621 84.7274 0.661621C82.611 0.661621 80.7234 1.03555 79.0646 1.74027C77.4058 2.47376 75.9615 3.43735 74.7889 4.68859C73.602 5.93982 72.7011 7.40679 72.0862 9.10387C71.4713 10.8009 71.1567 12.6418 71.1567 14.569C71.1567 16.4962 71.4713 18.3084 72.0862 20.0054C72.7011 21.7025 73.602 23.1695 74.7889 24.4207ZM76.0473 10.427C76.5049 9.20454 77.1198 8.18342 77.9349 7.30612C78.75 6.45758 79.7367 5.81039 80.895 5.35016C82.0533 4.88994 83.3403 4.67421 84.7274 4.67421C86.1288 4.67421 87.4301 4.90432 88.5884 5.35016C89.7467 5.81039 90.7334 6.45758 91.5199 7.30612C92.335 8.15466 92.9499 9.20454 93.4075 10.427C93.8651 11.6495 94.0796 13.0014 94.0796 14.5403C94.0796 16.0935 93.8508 17.4598 93.4075 18.6679C92.9499 19.8904 92.335 20.9115 91.5199 21.7888C90.7048 22.6374 89.7181 23.2845 88.5598 23.7448C87.4015 24.205 86.1431 24.4207 84.6988 24.4207C83.326 24.4207 82.0247 24.1906 80.8664 23.7448C79.7081 23.2845 78.7214 22.6374 77.9063 21.7888C77.0912 20.9403 76.4763 19.8904 76.0187 18.6679C75.5611 17.4454 75.3466 16.0935 75.3466 14.5547C75.4038 13.0014 75.6326 11.6207 76.0473 10.427ZM107.422 5.0194H101.373C100.658 5.0194 100.129 4.81805 99.7713 4.40097C99.4138 4.01266 99.2422 3.52367 99.2422 3.0203C99.2422 2.48816 99.3995 2.04232 99.7713 1.61086C100.1 1.19378 100.644 0.992432 101.373 0.992432H117.818C118.547 0.992432 119.076 1.1794 119.419 1.61086C119.748 2.02794 119.92 2.51693 119.92 3.0203C119.92 3.52367 119.763 3.96951 119.419 4.40097C119.062 4.81805 118.547 5.0194 117.818 5.0194H111.683V26.4055C111.683 27.0814 111.469 27.5848 111.011 27.93C110.568 28.2607 110.082 28.4333 109.552 28.4333C109.023 28.4333 108.551 28.2751 108.094 27.93C107.651 27.5992 107.422 27.0814 107.422 26.4055V5.0194ZM117.189 27.254C117.475 27.7286 117.861 28.0738 118.347 28.2751C118.819 28.4764 119.334 28.5052 119.891 28.3326C120.42 28.16 120.849 27.7717 121.135 27.1677L123.609 21.5875H135.75L138.195 27.1102C138.51 27.7286 138.896 28.1313 139.439 28.3039C139.969 28.4764 140.483 28.4764 140.955 28.2751C141.427 28.0738 141.828 27.743 142.114 27.254C142.4 26.7794 142.428 26.2329 142.171 25.6144L131.646 1.81218C131.417 1.28005 131.145 0.848585 130.774 0.589708C130.402 0.330832 130.044 0.187012 129.673 0.187012C129.301 0.187012 128.943 0.330832 128.6 0.589708C128.257 0.848585 127.985 1.2369 127.756 1.78342L117.117 25.5713C116.888 26.2329 116.917 26.7938 117.189 27.254ZM125.383 17.5893L129.701 7.91016L133.977 17.5893H125.383ZM1.95917 50.3659C13.0274 48.8414 22.8658 48.3236 26.927 48.2805C29.7441 48.1942 29.2865 50.4378 27.5276 50.6248C26.964 50.6798 26.2455 50.7403 25.3809 50.8132C21.0459 51.1787 13.0394 51.8536 2.48827 53.6881C-0.414633 54.2203 -1.01523 50.7686 1.95917 50.3659ZM5.46799 43.6141C5.68565 42.9736 5.92819 42.2598 6.19208 41.5066C7.72218 41.4922 9.30948 41.147 10.6251 40.7156C10.0245 42.2257 9.53828 43.7646 9.48108 45.0014C9.40958 47.2738 11.8978 46.8567 12.1981 45.3466C12.4555 44.1673 13.0275 42.125 13.9999 39.9246C14.9723 37.8104 16.0019 35.8401 16.5167 34.9196C17.3032 33.5246 14.7435 32.4603 13.9141 33.8985C13.5137 34.5888 12.7701 35.9551 12.0122 37.5372C10.7109 38.2706 8.62308 39.0473 6.99288 39.2774C7.50768 37.9686 8.07968 36.6167 8.75178 35.3799C9.92438 33.1794 7.13588 32.3165 6.03478 34.4019C5.06238 36.2572 4.23298 38.2706 3.54658 40.1547C2.90308 41.8518 2.45978 43.4482 2.15948 44.5412C1.54458 46.8423 4.21868 47.3313 4.89078 45.2891C5.05562 44.8278 5.24928 44.2578 5.46799 43.6141ZM24.4672 42.0675C22.1363 44.9151 19.7768 46.6122 17.9607 46.6122C16.259 46.6122 15.5869 45.476 15.5869 43.9084C15.5869 41.6648 17.3887 38.3426 19.7625 36.1421C21.8932 34.1718 24.8962 32.4603 28.0422 33.7547C28.9002 32.5322 31.1882 33.5246 30.416 34.8909C29.3578 36.7462 27.0984 42.1538 26.7981 44.9583C26.4978 47.4895 23.3804 47.3026 23.7522 44.6131C23.8523 44.0091 24.1097 43.103 24.4672 42.0675ZM27.0269 35.7826C25.5254 35.2217 23.8666 35.5237 21.693 37.6378C19.6195 39.6801 18.6042 41.9093 18.6042 43.1318C18.6042 43.4769 18.6328 43.8509 19.1619 43.8509C20.6348 43.8509 24.4529 40.543 26.7695 36.3291C26.8553 36.1421 26.9411 35.9551 27.0269 35.7826ZM47.1472 33.3231C44.4159 33.3231 41.4129 35.9694 38.51 40.3415C39.2822 38.4863 39.9543 36.9042 40.4834 35.7105C41.3843 33.6251 38.4814 32.2588 37.5519 34.3442C35.7445 38.4365 32.7027 47.3375 30.5453 53.6504C29.8031 55.812 29.1086 57.9983 28.2855 60.1312C27.4561 62.2454 30.6164 63.4678 31.4172 61.3393C31.8635 60.217 32.8581 57.3109 34.0654 53.7832C34.2505 53.2423 34.4407 52.6864 34.6347 52.1204C38.5529 53.8031 42.514 51.2863 45.1166 48.4962C48.091 45.3177 50.4648 40.7011 50.4219 37.4364C50.379 35.3222 49.5925 33.3231 47.1472 33.3231ZM42.6713 46.1519C40.2546 48.7263 37.5519 50.1213 35.6643 49.3015C35.6617 49.3015 35.6591 49.3011 35.6564 49.3003L35.6509 49.2984L35.6455 49.2962C35.6357 49.2921 35.6238 49.2872 35.6071 49.2872C35.6929 49.0427 35.7787 48.7838 35.8645 48.5249C39.4395 40.9887 44.2872 36.7317 46.1176 36.7317C46.7611 36.7317 46.947 37.2206 46.947 37.911C46.9184 39.9388 45.3025 43.3186 42.6713 46.1519ZM55.2552 37.5226C57.915 34.675 61.6902 32.115 65.637 34.0278C66.7381 32.3595 69.4837 33.8265 68.5256 35.768C67.21 38.4575 63.8209 47.0579 63.4491 51.0705C63.2632 53.2997 59.8026 53.0408 60.1029 50.7685C60.2602 49.5748 60.7321 47.7339 61.347 45.6916C58.344 50.0638 55.2695 52.7101 52.9529 52.7101C50.8508 52.7101 49.9785 51.0849 49.9785 48.7694C49.9785 45.519 52.2808 40.7011 55.2552 37.5226ZM53.482 48.3235C53.482 48.8125 53.5678 49.3015 54.2399 49.3015C56.0846 49.3015 60.7607 44.8287 64.1355 37.3788C64.207 37.2206 64.2928 36.9905 64.3786 36.7604C64.3715 36.7532 64.3643 36.7496 64.3572 36.746C64.35 36.7424 64.3429 36.7388 64.3357 36.7316C62.4481 35.8975 60.3746 36.6597 57.629 39.7662C55.0264 42.6858 53.482 46.2813 53.482 48.3235ZM85.1136 36.2715C85.1136 34.3012 83.5692 33.1218 80.8951 33.1218C76.3763 33.1218 71.5143 37.2495 69.4122 43.1892C68.6543 45.3465 68.2396 47.547 68.5828 49.3304C69.0404 51.4445 70.5419 52.7821 72.9443 52.7821C77.3916 52.7821 82.4681 48.9996 82.4681 44.5699C82.4681 43.4194 82.082 42.3407 81.2955 41.6072C83.4262 40.169 85.1136 38.3281 85.1136 36.2715ZM78.7501 44.3398C78.7501 46.7704 76.076 49.4886 73.4019 49.5317C72.3866 49.5317 71.9004 48.7407 71.9004 47.7483C71.9004 47.0868 72.0577 46.1088 72.4867 44.7425C72.93 44.9007 73.5878 44.9151 74.4172 44.7281C75.361 44.5124 76.791 44.0234 78.3068 43.3043C78.5356 43.5056 78.7501 43.822 78.7501 44.3398ZM80.7092 38.4288C78.793 40.356 75.8901 41.751 73.359 42.5996C75.0035 39.3492 77.935 36.0845 80.5519 36.0845C81.2669 36.0845 81.5243 36.4297 81.5243 36.8468C81.5386 37.3358 81.2383 37.8967 80.7092 38.4288ZM99.4278 34.2723C100.443 32.23 103.446 33.7401 102.474 35.7824C101.83 37.1055 100.515 39.9388 99.3134 43.0741C98.0693 46.2093 97.2113 49.2008 97.2828 50.8691C97.3543 53.1415 94.0081 53.2997 93.8937 51.0273C93.765 48.9851 94.5229 46.2237 95.4524 43.635C93.8079 44.2678 91.7916 44.7999 89.8611 44.843C89.4846 46.1078 89.1364 47.3026 88.8257 48.3691L88.8247 48.3726C88.475 49.5724 88.1728 50.6097 87.9306 51.4012C87.2585 53.5586 84.0267 52.5374 84.6988 50.3801C84.8841 49.7719 85.0984 49.0218 85.3425 48.1671L85.3435 48.1636L85.3438 48.1626C85.7402 46.7747 86.2153 45.1116 86.7723 43.3329C87.7161 40.3846 88.8744 37.1199 90.2329 34.2866C91.2053 32.2444 94.2512 33.7545 93.2788 35.7968C92.335 37.6952 91.5056 39.8381 90.7906 41.9235C92.9071 41.5064 95.6383 40.2983 97.2113 39.1909C98.1122 37.0624 98.9416 35.2502 99.4278 34.2723ZM123.638 35.7825C124.653 33.7402 121.793 32.4171 120.621 34.2724C120.363 34.6895 120.034 35.236 119.691 35.8975C117.732 37.9542 114.143 39.7375 111.983 40.471C111.526 40.2409 110.997 40.1115 110.382 40.1115C109.667 40.1115 108.895 40.2553 108.265 40.5429C109.038 38.9465 109.896 37.3933 110.754 35.9119C111.883 33.9416 108.952 32.2445 107.822 34.1717C105.563 38.0692 102.288 45.0014 102.288 49.129C102.288 51.0993 103.189 52.7964 105.563 52.7964C109.667 52.7964 113.914 48.1798 113.914 44.0809C113.914 43.5344 113.828 43.0023 113.671 42.5277C114.815 42.1106 116.145 41.5353 117.446 40.8018C117.332 41.0892 117.217 41.3773 117.117 41.6647C115.987 44.6993 114.901 48.2949 115.044 51.0131C115.158 53.2854 118.547 53.1272 118.433 50.8549C118.318 48.9277 119.148 45.8931 120.32 42.8297C121.142 40.5675 122.25 38.4533 123.02 36.9847C123.268 36.5113 123.481 36.105 123.638 35.7825ZM106.392 49.8337C105.334 49.8337 105.606 48.0504 105.935 46.7991C106.278 45.4041 106.735 44.0378 107.293 42.7002C107.55 42.9304 108.008 43.0454 108.68 43.0454C109.695 43.0454 110.368 43.6495 110.368 44.5555C110.339 46.756 108.08 49.8337 106.392 49.8337ZM131.846 39.9389C135.063 37.12 137.966 34.7758 139.525 33.654C141.37 32.3308 143.472 35.4086 141.627 36.7029C139.94 37.9254 136.522 40.4998 132.89 43.5488C133.819 46.454 134.806 48.9277 135.492 50.3803C136.508 52.4225 133.419 53.9038 132.446 51.8185C131.817 50.4953 130.974 48.4099 130.13 45.9506C127.885 47.9497 125.697 50.0495 123.938 52.0486C122.436 53.76 120.091 51.6315 121.564 49.9344C123.709 47.5182 126.383 44.9007 129.029 42.4701C128.385 40.2122 127.813 37.8104 127.441 35.4373C127.098 33.2081 130.444 32.676 130.788 34.9052C131.045 36.5735 131.417 38.285 131.846 39.9389Z" fill="currentColor" data-v-098dde30=""></path></mask> <g mask="url(#mask0_1026_674)" data-v-098dde30=""><rect id="cogBig" y="-4" width="2300" height="64" fill="url(#paint0_linear_1026_674)" data-v-098dde30=""></rect></g></g> <defs data-v-098dde30=""><linearGradient id="paint0_linear_1026_674" x1="188.35" y1="-193.5" x2="1123.67" y2="44.5709" gradientUnits="userSpaceOnUse" data-v-098dde30=""><stop offset="0%" stop-color="currentColor" data-v-098dde30=""></stop> <stop offset="87%" stop-color="#ed771e" data-v-098dde30=""></stop> <stop offset="100%" stop-color="currentColor" data-v-098dde30=""></stop></linearGradient></defs></svg>